<svg width="115" height="50" viewBox="0 0 115 50" fill="none" xmlns="http://www.w3.org/2000/svg">
<path d="M38.935 30V21.245H41.4V30H38.935ZM38.918 19.8V17.879H41.417V19.8H38.918ZM43.268 30V21.245H50.901C51.8983 21.245 52.6237 21.4943 53.077 21.993C53.5417 22.4803 53.774 23.1263 53.774 23.931V30H51.309V24.22C51.309 23.54 50.969 23.2 50.289 23.2H45.733V30H43.268ZM66.3312 30H63.8662V17.845H66.3312V30ZM65.9062 30H60.0412C58.5225 30 57.3382 29.626 56.4882 28.878C55.6382 28.13 55.2132 27.0477 55.2132 25.631C55.2132 24.203 55.6382 23.115 56.4882 22.367C57.3382 21.619 58.5225 21.245 60.0412 21.245H65.7362V23.2H60.0412C59.3045 23.2 58.7378 23.404 58.3412 23.812C57.9558 24.2087 57.7632 24.815 57.7632 25.631C57.7632 26.4357 57.9558 27.042 58.3412 27.45C58.7378 27.8467 59.3045 28.045 60.0412 28.045H65.9062V30ZM72.6916 30.085C71.1729 30.085 69.9886 29.711 69.1386 28.963C68.2886 28.2037 67.8636 27.093 67.8636 25.631C67.8636 24.1577 68.2886 23.047 69.1386 22.299C69.9886 21.5397 71.1729 21.16 72.6916 21.16H76.9416C77.9389 21.16 78.6982 21.398 79.2196 21.874C79.7522 22.3387 80.0186 23.0073 80.0186 23.88C80.0186 25.6593 78.9929 26.549 76.9416 26.549H70.5156C70.7536 27.603 71.4789 28.13 72.6916 28.13H79.5766V30.085H72.6916ZM72.6916 23.115C71.5242 23.115 70.8046 23.608 70.5326 24.594H76.8226C77.0492 24.594 77.2249 24.526 77.3496 24.39C77.4856 24.254 77.5536 24.067 77.5536 23.829C77.5536 23.353 77.3099 23.115 76.8226 23.115H72.6916ZM81.5512 30V21.245H88.2492C89.2352 21.245 89.9605 21.4943 90.4252 21.993C90.8899 22.4803 91.1222 23.1263 91.1222 23.931V25.75H88.6232V24.237C88.6232 23.557 88.2832 23.217 87.6032 23.217H84.0502V30H81.5512Z" fill="black"/>
<path d="M7.5 19.5H10" stroke="white"/>
<path d="M45.423 16.085C43.9043 16.085 42.72 15.711 41.87 14.963C41.02 14.2037 40.595 13.093 40.595 11.631C40.595 10.1577 41.02 9.047 41.87 8.299C42.72 7.53967 43.9043 7.16 45.423 7.16H51.118V9.115H45.423C44.6863 9.115 44.1197 9.319 43.723 9.727C43.3377 10.135 43.145 10.7697 43.145 11.631C43.145 12.481 43.3377 13.11 43.723 13.518C44.1197 13.926 44.6863 14.13 45.423 14.13H51.288V16.085H45.423ZM57.0441 16.085C55.5254 16.085 54.3411 15.711 53.4911 14.963C52.6411 14.2037 52.2161 13.093 52.2161 11.631C52.2161 10.1577 52.6411 9.047 53.4911 8.299C54.3411 7.53967 55.5254 7.16 57.0441 7.16H60.1891C61.7078 7.16 62.8921 7.53967 63.7421 8.299C64.5921 9.047 65.0171 10.1577 65.0171 11.631C65.0171 13.093 64.5921 14.2037 63.7421 14.963C62.8921 15.711 61.7078 16.085 60.1891 16.085H57.0441ZM57.0441 14.13H60.1891C60.9258 14.13 61.4868 13.926 61.8721 13.518C62.2688 13.11 62.4671 12.481 62.4671 11.631C62.4671 10.7697 62.2688 10.135 61.8721 9.727C61.4868 9.319 60.9258 9.115 60.1891 9.115H57.0441C56.3074 9.115 55.7408 9.319 55.3441 9.727C54.9588 10.135 54.7661 10.7697 54.7661 11.631C54.7661 12.481 54.9588 13.11 55.3441 13.518C55.7408 13.926 56.3074 14.13 57.0441 14.13ZM71.0392 16.085C69.5205 16.085 68.3362 15.711 67.4862 14.963C66.6362 14.2037 66.2112 13.093 66.2112 11.631C66.2112 10.1577 66.6362 9.047 67.4862 8.299C68.3362 7.53967 69.5205 7.16 71.0392 7.16H74.1842C75.7029 7.16 76.8872 7.53967 77.7372 8.299C78.5872 9.047 79.0122 10.1577 79.0122 11.631C79.0122 13.093 78.5872 14.2037 77.7372 14.963C76.8872 15.711 75.7029 16.085 74.1842 16.085H71.0392ZM71.0392 14.13H74.1842C74.9209 14.13 75.4819 13.926 75.8672 13.518C76.2639 13.11 76.4622 12.481 76.4622 11.631C76.4622 10.7697 76.2639 10.135 75.8672 9.727C75.4819 9.319 74.9209 9.115 74.1842 9.115H71.0392C70.3025 9.115 69.7359 9.319 69.3392 9.727C68.9539 10.135 68.7612 10.7697 68.7612 11.631C68.7612 12.481 68.9539 13.11 69.3392 13.518C69.7359 13.926 70.3025 14.13 71.0392 14.13ZM85.4344 16C84.4484 16 83.723 15.7563 83.2584 15.269C82.7937 14.7703 82.5614 14.1187 82.5614 13.314V9.2H80.0284V7.245H82.5614V4.559H85.0264V7.245H88.6644V9.2H85.0264V13.008C85.0264 13.6993 85.3664 14.045 86.0464 14.045H89.1404V16H85.4344Z" fill="black"/>
<line x1="35" y1="9.5" x2="39" y2="9.5" stroke="white"/>
<line x1="7" y1="20.5" x2="10" y2="20.5" stroke="white"/>
<g clip-path="url(#clip0_7_74)">
<path d="M38 18.7812H27.75L32.375 41.9062" stroke="black" stroke-width="2" stroke-miterlimit="10" stroke-linecap="round" stroke-linejoin="round"/>
<path d="M32.375 45.375C34.2907 45.375 35.8438 43.822 35.8438 41.9062C35.8438 39.9905 34.2907 38.4375 32.375 38.4375C30.4593 38.4375 28.9062 39.9905 28.9062 41.9062C28.9062 43.822 30.4593 45.375 32.375 45.375Z" stroke="black" stroke-width="2" stroke-miterlimit="10" stroke-linecap="round" stroke-linejoin="round"/>
<path d="M4.625 45.375C6.54074 45.375 8.09375 43.822 8.09375 41.9062C8.09375 39.9905 6.54074 38.4375 4.625 38.4375C2.70926 38.4375 1.15625 39.9905 1.15625 41.9062C1.15625 43.822 2.70926 45.375 4.625 45.375Z" stroke="black" stroke-width="2" stroke-miterlimit="10" stroke-linecap="round" stroke-linejoin="round"/>
<path d="M30.0625 32.6562L24.2812 41.9062H4.625" stroke="black" stroke-width="2" stroke-miterlimit="10" stroke-linecap="round" stroke-linejoin="round"/>
</g>
<path d="M26 17.5H29" stroke="white"/>
<line x1="26" y1="18.5" x2="29" y2="18.5" stroke="white"/>
<path d="M36 26H37V24H36V26ZM29 26H36V24H29V26Z" fill="black"/>
<path d="M25.799 16.085V13.875L35.574 13.892C36.0727 13.892 36.4523 13.7787 36.713 13.552C36.985 13.314 37.121 12.9343 37.121 12.413C37.121 11.8917 36.985 11.5177 36.713 11.291C36.4523 11.053 36.0727 10.934 35.574 10.934H29.488C28.23 10.934 27.2497 10.6337 26.547 10.033C25.8557 9.421 25.51 8.52567 25.51 7.347C25.51 6.16833 25.8557 5.27867 26.547 4.678C27.2497 4.066 28.23 3.76 29.488 3.76H39.042V5.97L29.777 5.953C29.2897 5.953 28.91 6.06633 28.638 6.293C28.366 6.50833 28.23 6.85967 28.23 7.347C28.23 7.83433 28.366 8.19133 28.638 8.418C28.91 8.63333 29.2897 8.741 29.777 8.741H35.863C37.121 8.741 38.0957 9.05267 38.787 9.676C39.4897 10.288 39.841 11.2003 39.841 12.413C39.841 13.6143 39.4897 14.5267 38.787 15.15C38.0957 15.7733 37.121 16.085 35.863 16.085H25.799Z" fill="black"/>
<line x1="36" y1="5.5" x2="40" y2="5.5" stroke="white"/>
<defs>
<clipPath id="clip0_7_74">
<rect width="37" height="37" fill="white" transform="translate(0 13)"/>
</clipPath>
</defs>
</svg>
