<svg width="37" height="37" viewBox="0 0 37 37" fill="none" xmlns="http://www.w3.org/2000/svg">
<path d="M11.799 17.085V14.875L21.574 14.892C22.0727 14.892 22.4523 14.7787 22.713 14.552C22.985 14.314 23.121 13.9343 23.121 13.413C23.121 12.8917 22.985 12.5177 22.713 12.291C22.4523 12.053 22.0727 11.934 21.574 11.934H15.488C14.23 11.934 13.2497 11.6337 12.547 11.033C11.8557 10.421 11.51 9.52567 11.51 8.347C11.51 7.16833 11.8557 6.27867 12.547 5.678C13.2497 5.066 14.23 4.76 15.488 4.76H25.042V6.97L15.777 6.953C15.2897 6.953 14.91 7.06633 14.638 7.293C14.366 7.50833 14.23 7.85967 14.23 8.347C14.23 8.83433 14.366 9.19133 14.638 9.418C14.91 9.63333 15.2897 9.741 15.777 9.741H21.863C23.121 9.741 24.0957 10.0527 24.787 10.676C25.4897 11.288 25.841 12.2003 25.841 13.413C25.841 14.6143 25.4897 15.5267 24.787 16.15C24.0957 16.7733 23.121 17.085 21.863 17.085H11.799Z" fill="black"/>
<line x1="22" y1="6.5" x2="26" y2="6.5" stroke="white"/>
<g clip-path="url(#clip0_7_73)">
<path d="M38 5.78125H27.75L32.375 28.9062" stroke="black" stroke-width="2" stroke-miterlimit="10" stroke-linecap="round" stroke-linejoin="round"/>
<path d="M32.375 32.375C34.2907 32.375 35.8438 30.822 35.8438 28.9062C35.8438 26.9905 34.2907 25.4375 32.375 25.4375C30.4593 25.4375 28.9062 26.9905 28.9062 28.9062C28.9062 30.822 30.4593 32.375 32.375 32.375Z" stroke="black" stroke-width="2" stroke-miterlimit="10" stroke-linecap="round" stroke-linejoin="round"/>
<path d="M4.625 32.375C6.54074 32.375 8.09375 30.822 8.09375 28.9062C8.09375 26.9905 6.54074 25.4375 4.625 25.4375C2.70926 25.4375 1.15625 26.9905 1.15625 28.9062C1.15625 30.822 2.70926 32.375 4.625 32.375Z" stroke="black" stroke-width="2" stroke-miterlimit="10" stroke-linecap="round" stroke-linejoin="round"/>
<path d="M30.0625 19.6562L24.2812 28.9062H4.625" stroke="black" stroke-width="2" stroke-miterlimit="10" stroke-linecap="round" stroke-linejoin="round"/>
</g>
<path d="M26 4.5H29" stroke="white"/>
<line x1="26" y1="5.5" x2="29" y2="5.5" stroke="white"/>
<path d="M36 13H37V11H36V13ZM29 13H36V11H29V13Z" fill="black"/>
<defs>
<clipPath id="clip0_7_73">
<rect width="37" height="37" fill="white"/>
</clipPath>
</defs>
</svg>
